<svg viewBox="0 0 633.8828125 1472.6160888671875" style="max-width: 100%;" aria-labelledby="chart-title-graph-div chart-desc-graph-div" role="img" xmlns="http://www.w3.org/2000/svg" width="100%" id="graph-div" height="100%" xmlns:xlink="http://www.w3.org/1999/xlink"><style>@import url("https://cdnjs.cloudflare.com/ajax/libs/font-awesome/6.2.0/css/all.min.css");'</style><title id="chart-title-graph-div"></title><desc id="chart-desc-graph-div"></desc><style>#graph-div {font-family:"trebuchet ms",verdana,arial,sans-serif;font-size:16px;fill:#333;}#graph-div .error-icon{fill:#552222;}#graph-div .error-text{fill:#552222;stroke:#552222;}#graph-div .edge-thickness-normal{stroke-width:2px;}#graph-div .edge-thickness-thick{stroke-width:3.5px;}#graph-div .edge-pattern-solid{stroke-dasharray:0;}#graph-div .edge-pattern-dashed{stroke-dasharray:3;}#graph-div .edge-pattern-dotted{stroke-dasharray:2;}#graph-div .marker{fill:#333333;stroke:#333333;}#graph-div .marker.cross{stroke:#333333;}#graph-div svg{font-family:"trebuchet ms",verdana,arial,sans-serif;font-size:16px;}#graph-div .label{font-family:"trebuchet ms",verdana,arial,sans-serif;color:#333;}#graph-div .cluster-label text{fill:#333;}#graph-div .cluster-label span{color:#333;}#graph-div .label text,#graph-div span{fill:#333;color:#333;}#graph-div .node rect,#graph-div .node circle,#graph-div .node ellipse,#graph-div .node polygon,#graph-div .node path{fill:#ECECFF;stroke:#9370DB;stroke-width:1px;}#graph-div .node .label{text-align:center;}#graph-div .node.clickable{cursor:pointer;}#graph-div .arrowheadPath{fill:#333333;}#graph-div .edgePath .path{stroke:#333333;stroke-width:2.0px;}#graph-div .flowchart-link{stroke:#333333;fill:none;}#graph-div .edgeLabel{background-color:#e8e8e8;text-align:center;}#graph-div .edgeLabel rect{opacity:0.5;background-color:#e8e8e8;fill:#e8e8e8;}#graph-div .cluster rect{fill:#ffffde;stroke:#aaaa33;stroke-width:1px;}#graph-div .cluster text{fill:#333;}#graph-div .cluster span{color:#333;}#graph-div div.mermaidTooltip{position:absolute;text-align:center;max-width:200px;padding:2px;font-family:"trebuchet ms",verdana,arial,sans-serif;font-size:12px;background:hsl(80, 100%, 96.2745098039%);border:1px solid #aaaa33;border-radius:2px;pointer-events:none;z-index:100;}#graph-div :root{--mermaid-font-family:"trebuchet ms",verdana,arial,sans-serif;}</style><g><g class="output"><g class="clusters"></g><g class="edgePaths"><g style="opacity: 1;" id="L-a-b1" class="edgePath LS-a LE-b1"><path style="fill:none" marker-end="url(#arrowhead163)" d="M148.40575132978722,52L137.56729277482268,56.166666666666664C126.72883421985814,60.333333333333336,105.05191710992908,68.66666666666667,94.21345855496453,77C83.375,85.33333333333333,83.375,93.66666666666667,83.375,97.83333333333333L83.375,102" class="path"></path><defs><marker orient="auto" markerHeight="6" markerWidth="8" markerUnits="strokeWidth" refY="5" refX="9" viewBox="0 0 10 10" id="arrowhead163"><path style="stroke-width: 1; stroke-dasharray: 1, 0;" class="arrowheadPath" d="M 0 0 L 10 5 L 0 10 z"></path></marker></defs></g><g style="opacity: 1;" id="L-b1-e1" class="edgePath LS-b1 LE-e1"><path style="fill:none" marker-end="url(#arrowhead164)" d="M83.375,146L83.375,150.16666666666666C83.375,154.33333333333334,83.375,162.66666666666666,83.375,171C83.375,179.33333333333334,83.375,187.66666666666666,83.375,191.83333333333334L83.375,196" class="path"></path><defs><marker orient="auto" markerHeight="6" markerWidth="8" markerUnits="strokeWidth" refY="5" refX="9" viewBox="0 0 10 10" id="arrowhead164"><path style="stroke-width: 1; stroke-dasharray: 1, 0;" class="arrowheadPath" d="M 0 0 L 10 5 L 0 10 z"></path></marker></defs></g><g style="opacity: 1;" id="L-e1-f1" class="edgePath LS-e1 LE-f1"><path style="fill:none" marker-end="url(#arrowhead165)" d="M83.375,240L83.375,246.16666666666666C83.375,252.33333333333334,83.375,264.6666666666667,83.375,280.6666666666667C83.375,296.6666666666667,83.375,316.3333333333333,83.375,334C83.375,351.6666666666667,83.375,367.3333333333333,83.375,383C83.375,398.6666666666667,83.375,414.3333333333333,83.375,430C83.375,445.6666666666667,83.375,461.3333333333333,83.375,477C83.375,492.6666666666667,83.375,508.3333333333333,83.375,526C83.375,543.6666666666666,83.375,563.3333333333334,83.375,583C83.375,602.6666666666666,83.375,622.3333333333334,83.375,640C83.375,657.6666666666666,83.375,673.3333333333334,83.375,689C83.375,704.6666666666666,83.375,720.3333333333334,83.375,736C83.375,751.6666666666666,83.375,767.3333333333334,83.375,779.3333333333334C83.375,791.3333333333334,83.375,799.6666666666666,83.375,808C83.375,816.3333333333334,83.375,824.6666666666666,83.375,833C83.375,841.3333333333334,83.375,849.6666666666666,83.375,858C83.375,866.3333333333334,83.375,874.6666666666666,83.375,886.6666666666666C83.375,898.6666666666666,83.375,914.3333333333334,83.375,930C83.375,945.6666666666666,83.375,961.3333333333334,83.375,977C83.375,992.6666666666666,83.375,1008.3333333333334,83.375,1024C83.375,1039.6666666666667,83.375,1055.3333333333333,83.375,1071C83.375,1086.6666666666667,83.375,1102.3333333333333,83.375,1118C83.375,1133.6666666666667,83.375,1149.3333333333333,97.14345423013539,1168.1078478531979C110.9119084602708,1186.8823623730625,138.4488169205416,1208.764724746125,152.217271150677,1219.7059059326564L165.9857253808124,1230.6470871191875" class="path"></path><defs><marker orient="auto" markerHeight="6" markerWidth="8" markerUnits="strokeWidth" refY="5" refX="9" viewBox="0 0 10 10" id="arrowhead165"><path style="stroke-width: 1; stroke-dasharray: 1, 0;" class="arrowheadPath" d="M 0 0 L 10 5 L 0 10 z"></path></marker></defs></g><g style="opacity: 1;" id="L-f1-f2" class="edgePath LS-f1 LE-f2"><path style="fill:none" marker-end="url(#arrowhead166)" d="M206.1328125,1334.5L206.04947916666666,1338.5833333333333C205.96614583333334,1342.6666666666667,205.79947916666666,1350.8333333333333,213.44140625,1361.7110043409273C221.08333333333334,1372.588675348521,236.53385416666666,1386.1773506970424,244.25911458333334,1392.971688371303L251.984375,1399.7660260455636" class="path"></path><defs><marker orient="auto" markerHeight="6" markerWidth="8" markerUnits="strokeWidth" refY="5" refX="9" viewBox="0 0 10 10" id="arrowhead166"><path style="stroke-width: 1; stroke-dasharray: 1, 0;" class="arrowheadPath" d="M 0 0 L 10 5 L 0 10 z"></path></marker></defs></g><g style="opacity: 1;" id="L-a-b2" class="edgePath LS-a LE-b2"><path style="fill:none" marker-end="url(#arrowhead167)" d="M262.8598736702128,52L273.69833222517735,56.166666666666664C284.53679078014187,60.333333333333336,306.2137078900709,68.66666666666667,317.0521664450355,77C327.890625,85.33333333333333,327.890625,93.66666666666667,327.890625,97.83333333333333L327.890625,102" class="path"></path><defs><marker orient="auto" markerHeight="6" markerWidth="8" markerUnits="strokeWidth" refY="5" refX="9" viewBox="0 0 10 10" id="arrowhead167"><path style="stroke-width: 1; stroke-dasharray: 1, 0;" class="arrowheadPath" d="M 0 0 L 10 5 L 0 10 z"></path></marker></defs></g><g style="opacity: 1;" id="L-b2-c" class="edgePath LS-b2 LE-c"><path style="fill:none" marker-end="url(#arrowhead168)" d="M327.890625,146L327.890625,150.16666666666666C327.890625,154.33333333333334,327.890625,162.66666666666666,327.890625,171C327.890625,179.33333333333334,327.890625,187.66666666666666,327.890625,191.83333333333334L327.890625,196" class="path"></path><defs><marker orient="auto" markerHeight="6" markerWidth="8" markerUnits="strokeWidth" refY="5" refX="9" viewBox="0 0 10 10" id="arrowhead168"><path style="stroke-width: 1; stroke-dasharray: 1, 0;" class="arrowheadPath" d="M 0 0 L 10 5 L 0 10 z"></path></marker></defs></g><g style="opacity: 1;" id="L-c-d1" class="edgePath LS-c LE-d1"><path style="fill:none" marker-end="url(#arrowhead169)" d="M327.890625,240L327.890625,246.16666666666666C327.890625,252.33333333333334,327.890625,264.6666666666667,327.890625,277C327.890625,289.3333333333333,327.890625,301.6666666666667,327.890625,307.8333333333333L327.890625,314" class="path"></path><defs><marker orient="auto" markerHeight="6" markerWidth="8" markerUnits="strokeWidth" refY="5" refX="9" viewBox="0 0 10 10" id="arrowhead169"><path style="stroke-width: 1; stroke-dasharray: 1, 0;" class="arrowheadPath" d="M 0 0 L 10 5 L 0 10 z"></path></marker></defs></g><g style="opacity: 1;" id="L-d1-g1" class="edgePath LS-d1 LE-g1"><path style="fill:none" marker-end="url(#arrowhead170)" d="M253.890625,354.4754316069057L234.84895833333334,359.22952633908807C215.80729166666666,363.9836210712704,177.72395833333334,373.49181053563524,158.68229166666666,386.07923860115096C139.640625,398.6666666666667,139.640625,414.3333333333333,139.640625,430C139.640625,445.6666666666667,139.640625,461.3333333333333,139.640625,477C139.640625,492.6666666666667,139.640625,508.3333333333333,139.640625,526C139.640625,543.6666666666666,139.640625,563.3333333333334,139.640625,583C139.640625,602.6666666666666,139.640625,622.3333333333334,139.640625,640C139.640625,657.6666666666666,139.640625,673.3333333333334,142.85566267730496,685.3333333333334C146.07070035460993,697.3333333333334,152.50077570921985,705.6666666666666,155.71581338652481,709.8333333333334L158.93085106382978,714" class="path"></path><defs><marker orient="auto" markerHeight="6" markerWidth="8" markerUnits="strokeWidth" refY="5" refX="9" viewBox="0 0 10 10" id="arrowhead170"><path style="stroke-width: 1; stroke-dasharray: 1, 0;" class="arrowheadPath" d="M 0 0 L 10 5 L 0 10 z"></path></marker></defs></g><g style="opacity: 1;" id="L-g1-e" class="edgePath LS-g1 LE-e"><path style="fill:none" marker-end="url(#arrowhead171)" d="M175.90625,758L175.90625,762.1666666666666C175.90625,766.3333333333334,175.90625,774.6666666666666,175.90625,783C175.90625,791.3333333333334,175.90625,799.6666666666666,175.90625,808C175.90625,816.3333333333334,175.90625,824.6666666666666,175.90625,833C175.90625,841.3333333333334,175.90625,849.6666666666666,175.90625,858C175.90625,866.3333333333334,175.90625,874.6666666666666,175.90625,883C175.90625,891.3333333333334,175.90625,899.6666666666666,175.90625,903.8333333333334L175.90625,908" class="path"></path><defs><marker orient="auto" markerHeight="6" markerWidth="8" markerUnits="strokeWidth" refY="5" refX="9" viewBox="0 0 10 10" id="arrowhead171"><path style="stroke-width: 1; stroke-dasharray: 1, 0;" class="arrowheadPath" d="M 0 0 L 10 5 L 0 10 z"></path></marker></defs></g><g style="opacity: 1;" id="L-e-e2" class="edgePath LS-e LE-e2"><path style="fill:none" marker-end="url(#arrowhead172)" d="M175.90625,952L175.90625,956.1666666666666C175.90625,960.3333333333334,175.90625,968.6666666666666,175.90625,977C175.90625,985.3333333333334,175.90625,993.6666666666666,175.90625,997.8333333333334L175.90625,1002" class="path"></path><defs><marker orient="auto" markerHeight="6" markerWidth="8" markerUnits="strokeWidth" refY="5" refX="9" viewBox="0 0 10 10" id="arrowhead172"><path style="stroke-width: 1; stroke-dasharray: 1, 0;" class="arrowheadPath" d="M 0 0 L 10 5 L 0 10 z"></path></marker></defs></g><g style="opacity: 1;" id="L-e2-f5" class="edgePath LS-e2 LE-f5"><path style="fill:none" marker-end="url(#arrowhead173)" d="M175.90625,1046L175.90625,1050.1666666666667C175.90625,1054.3333333333333,175.90625,1062.6666666666667,188.70442708333334,1071.897051408528C201.50260416666666,1081.127436150389,227.09895833333334,1091.2548723007783,239.89713541666666,1096.318590375973L252.6953125,1101.3823084511673" class="path"></path><defs><marker orient="auto" markerHeight="6" markerWidth="8" markerUnits="strokeWidth" refY="5" refX="9" viewBox="0 0 10 10" id="arrowhead173"><path style="stroke-width: 1; stroke-dasharray: 1, 0;" class="arrowheadPath" d="M 0 0 L 10 5 L 0 10 z"></path></marker></defs></g><g style="opacity: 1;" id="L-f5-f1" class="edgePath LS-f5 LE-f1"><path style="fill:none" marker-end="url(#arrowhead174)" d="M294.6953125,1140L294.6953125,1144.1666666666667C294.6953125,1148.3333333333333,294.6953125,1156.6666666666667,285.6789334551002,1170.8273709551002C276.6625544102004,1184.9880752435338,258.6297963204008,1204.9761504870676,249.61341727550106,1214.9701881088345L240.59703823060127,1224.9642257306014" class="path"></path><defs><marker orient="auto" markerHeight="6" markerWidth="8" markerUnits="strokeWidth" refY="5" refX="9" viewBox="0 0 10 10" id="arrowhead174"><path style="stroke-width: 1; stroke-dasharray: 1, 0;" class="arrowheadPath" d="M 0 0 L 10 5 L 0 10 z"></path></marker></defs></g><g style="opacity: 1;" id="L-d1-g2" class="edgePath LS-d1 LE-g2"><path style="fill:none" marker-end="url(#arrowhead175)" d="M332.5714760638298,358L333.4580008865248,362.1666666666667C334.34452570921985,366.3333333333333,336.1175753546099,374.6666666666667,337.00410017730496,383C337.890625,391.3333333333333,337.890625,399.6666666666667,337.890625,403.8333333333333L337.890625,408" class="path"></path><defs><marker orient="auto" markerHeight="6" markerWidth="8" markerUnits="strokeWidth" refY="5" refX="9" viewBox="0 0 10 10" id="arrowhead175"><path style="stroke-width: 1; stroke-dasharray: 1, 0;" class="arrowheadPath" d="M 0 0 L 10 5 L 0 10 z"></path></marker></defs></g><g style="opacity: 1;" id="L-g2-e3" class="edgePath LS-g2 LE-e3"><path style="fill:none" marker-end="url(#arrowhead176)" d="M337.890625,452L337.890625,456.1666666666667C337.890625,460.3333333333333,337.890625,468.6666666666667,337.890625,477C337.890625,485.3333333333333,337.890625,493.6666666666667,337.890625,497.8333333333333L337.890625,502" class="path"></path><defs><marker orient="auto" markerHeight="6" markerWidth="8" markerUnits="strokeWidth" refY="5" refX="9" viewBox="0 0 10 10" id="arrowhead176"><path style="stroke-width: 1; stroke-dasharray: 1, 0;" class="arrowheadPath" d="M 0 0 L 10 5 L 0 10 z"></path></marker></defs></g><g style="opacity: 1;" id="L-e3-d2" class="edgePath LS-e3 LE-d2"><path style="fill:none" marker-end="url(#arrowhead177)" d="M337.890625,546L337.890625,552.1666666666666C337.890625,558.3333333333334,337.890625,570.6666666666666,337.890625,583C337.890625,595.3333333333334,337.890625,607.6666666666666,337.890625,613.8333333333334L337.890625,620" class="path"></path><defs><marker orient="auto" markerHeight="6" markerWidth="8" markerUnits="strokeWidth" refY="5" refX="9" viewBox="0 0 10 10" id="arrowhead177"><path style="stroke-width: 1; stroke-dasharray: 1, 0;" class="arrowheadPath" d="M 0 0 L 10 5 L 0 10 z"></path></marker></defs></g><g style="opacity: 1;" id="L-d2-f3" class="edgePath LS-d2 LE-f3"><path style="fill:none" marker-end="url(#arrowhead178)" d="M380.95079787234044,664L389.10613364361706,668.1666666666666C397.2614694148936,672.3333333333334,413.57214095744683,680.6666666666666,431.1246398492908,689C448.67713874113474,697.3333333333334,467.4714649822695,705.6666666666666,476.8686281028369,709.8333333333334L486.2657912234043,714" class="path"></path><defs><marker orient="auto" markerHeight="6" markerWidth="8" markerUnits="strokeWidth" refY="5" refX="9" viewBox="0 0 10 10" id="arrowhead178"><path style="stroke-width: 1; stroke-dasharray: 1, 0;" class="arrowheadPath" d="M 0 0 L 10 5 L 0 10 z"></path></marker></defs></g><g style="opacity: 1;" id="L-d2-g1" class="edgePath LS-d2 LE-g1"><path style="fill:none" marker-end="url(#arrowhead179)" d="M292.95811170212767,664L284.448166001773,668.1666666666666C275.9382203014184,672.3333333333334,258.91832890070924,680.6666666666666,244.55801196808508,689C230.197695035461,697.3333333333334,218.496952570922,705.6666666666666,212.64658133865248,709.8333333333334L206.79621010638297,714" class="path"></path><defs><marker orient="auto" markerHeight="6" markerWidth="8" markerUnits="strokeWidth" refY="5" refX="9" viewBox="0 0 10 10" id="arrowhead179"><path style="stroke-width: 1; stroke-dasharray: 1, 0;" class="arrowheadPath" d="M 0 0 L 10 5 L 0 10 z"></path></marker></defs></g><g style="opacity: 1;" id="L-d2-g3" class="edgePath LS-d2 LE-g3"><path style="fill:none" marker-end="url(#arrowhead180)" d="M333.2097739361702,664L332.3232491134752,668.1666666666666C331.43672429078015,672.3333333333334,329.6636746453901,680.6666666666666,328.77714982269504,689C327.890625,697.3333333333334,327.890625,705.6666666666666,327.890625,709.8333333333334L327.890625,714" class="path"></path><defs><marker orient="auto" markerHeight="6" markerWidth="8" markerUnits="strokeWidth" refY="5" refX="9" viewBox="0 0 10 10" id="arrowhead180"><path style="stroke-width: 1; stroke-dasharray: 1, 0;" class="arrowheadPath" d="M 0 0 L 10 5 L 0 10 z"></path></marker></defs></g><g style="opacity: 1;" id="L-g3-f5" class="edgePath LS-g3 LE-f5"><path style="fill:none" marker-end="url(#arrowhead181)" d="M327.890625,758L327.890625,762.1666666666666C327.890625,766.3333333333334,327.890625,774.6666666666666,327.890625,783C327.890625,791.3333333333334,327.890625,799.6666666666666,327.890625,808C327.890625,816.3333333333334,327.890625,824.6666666666666,327.890625,833C327.890625,841.3333333333334,327.890625,849.6666666666666,327.890625,858C327.890625,866.3333333333334,327.890625,874.6666666666666,327.890625,886.6666666666666C327.890625,898.6666666666666,327.890625,914.3333333333334,327.890625,930C327.890625,945.6666666666666,327.890625,961.3333333333334,327.890625,977C327.890625,992.6666666666666,327.890625,1008.3333333333334,327.890625,1024C327.890625,1039.6666666666667,327.890625,1055.3333333333333,324.9477781471631,1067.3333333333333C322.00493129432624,1079.3333333333333,316.1192375886525,1087.6666666666667,313.1763907358156,1091.8333333333333L310.2335438829787,1096" class="path"></path><defs><marker orient="auto" markerHeight="6" markerWidth="8" markerUnits="strokeWidth" refY="5" refX="9" viewBox="0 0 10 10" id="arrowhead181"><path style="stroke-width: 1; stroke-dasharray: 1, 0;" class="arrowheadPath" d="M 0 0 L 10 5 L 0 10 z"></path></marker></defs></g><g style="opacity: 1;" id="L-d1-f3" class="edgePath LS-d1 LE-f3"><path style="fill:none" marker-end="url(#arrowhead182)" d="M401.890625,352.72178191789055L424.22265625,357.7681515982421C446.5546875,362.8145212785937,491.21875,372.9072606392968,513.55078125,385.78696365298174C535.8828125,398.6666666666667,535.8828125,414.3333333333333,535.8828125,430C535.8828125,445.6666666666667,535.8828125,461.3333333333333,535.8828125,477C535.8828125,492.6666666666667,535.8828125,508.3333333333333,535.8828125,526C535.8828125,543.6666666666666,535.8828125,563.3333333333334,535.8828125,583C535.8828125,602.6666666666666,535.8828125,622.3333333333334,535.8828125,640C535.8828125,657.6666666666666,535.8828125,673.3333333333334,535.8828125,685.3333333333334C535.8828125,697.3333333333334,535.8828125,705.6666666666666,535.8828125,709.8333333333334L535.8828125,714" class="path"></path><defs><marker orient="auto" markerHeight="6" markerWidth="8" markerUnits="strokeWidth" refY="5" refX="9" viewBox="0 0 10 10" id="arrowhead182"><path style="stroke-width: 1; stroke-dasharray: 1, 0;" class="arrowheadPath" d="M 0 0 L 10 5 L 0 10 z"></path></marker></defs></g><g style="opacity: 1;" id="L-f3-f4" class="edgePath LS-f3 LE-f4"><path style="fill:none" marker-end="url(#arrowhead183)" d="M535.8828125,758L535.8828125,762.1666666666666C535.8828125,766.3333333333334,535.8828125,774.6666666666666,535.8828125,783C535.8828125,791.3333333333334,535.8828125,799.6666666666666,535.8828125,808C535.8828125,816.3333333333334,535.8828125,824.6666666666666,535.8828125,833C535.8828125,841.3333333333334,535.8828125,849.6666666666666,535.8828125,858C535.8828125,866.3333333333334,535.8828125,874.6666666666666,535.8828125,886.6666666666666C535.8828125,898.6666666666666,535.8828125,914.3333333333334,535.8828125,930C535.8828125,945.6666666666666,535.8828125,961.3333333333334,535.8828125,977C535.8828125,992.6666666666666,535.8828125,1008.3333333333334,535.8828125,1024C535.8828125,1039.6666666666667,535.8828125,1055.3333333333333,535.8828125,1071C535.8828125,1086.6666666666667,535.8828125,1102.3333333333333,535.8828125,1118C535.8828125,1133.6666666666667,535.8828125,1149.3333333333333,535.8828125,1169.6666666666667C535.8828125,1190,535.8828125,1215,535.8828125,1227.5L535.8828125,1240" class="path"></path><defs><marker orient="auto" markerHeight="6" markerWidth="8" markerUnits="strokeWidth" refY="5" refX="9" viewBox="0 0 10 10" id="arrowhead183"><path style="stroke-width: 1; stroke-dasharray: 1, 0;" class="arrowheadPath" d="M 0 0 L 10 5 L 0 10 z"></path></marker></defs></g><g style="opacity: 1;" id="L-f4-f2" class="edgePath LS-f4 LE-f2"><path style="fill:none" marker-end="url(#arrowhead184)" d="M535.8828125,1284L535.8828125,1296.5C535.8828125,1309,535.8828125,1334,508.44921875,1354.4894536789445C481.015625,1374.9789073578888,426.1484375,1390.9578147157779,398.71484375,1398.9472683947224L371.28125,1406.9367220736667" class="path"></path><defs><marker orient="auto" markerHeight="6" markerWidth="8" markerUnits="strokeWidth" refY="5" refX="9" viewBox="0 0 10 10" id="arrowhead184"><path style="stroke-width: 1; stroke-dasharray: 1, 0;" class="arrowheadPath" d="M 0 0 L 10 5 L 0 10 z"></path></marker></defs></g></g><g class="edgeLabels"><g style="opacity: 1;" transform="" class="edgeLabel"><g class="label" transform="translate(0,0)"><rect height="0" width="0" ry="0" rx="0"></rect><foreignObject height="0" width="0"><div style="display: inline-block; white-space: nowrap;" xmlns="http://www.w3.org/1999/xhtml"><span style="" class="edgeLabel L-LS-a' L-LE-b1" id="L-L-a-b1"></span></div></foreignObject></g></g><g style="opacity: 1;" transform="" class="edgeLabel"><g class="label" transform="translate(0,0)"><rect height="0" width="0" ry="0" rx="0"></rect><foreignObject height="0" width="0"><div style="display: inline-block; white-space: nowrap;" xmlns="http://www.w3.org/1999/xhtml"><span style="" class="edgeLabel L-LS-b1' L-LE-e1" id="L-L-b1-e1"></span></div></foreignObject></g></g><g style="opacity: 1;" transform="" class="edgeLabel"><g class="label" transform="translate(0,0)"><rect height="0" width="0" ry="0" rx="0"></rect><foreignObject height="0" width="0"><div style="display: inline-block; white-space: nowrap;" xmlns="http://www.w3.org/1999/xhtml"><span style="" class="edgeLabel L-LS-e1' L-LE-f1" id="L-L-e1-f1"></span></div></foreignObject></g></g><g style="opacity: 1;" transform="" class="edgeLabel"><g class="label" transform="translate(0,0)"><rect height="0" width="0" ry="0" rx="0"></rect><foreignObject height="0" width="0"><div style="display: inline-block; white-space: nowrap;" xmlns="http://www.w3.org/1999/xhtml"><span style="" class="edgeLabel L-LS-f1' L-LE-f2" id="L-L-f1-f2"></span></div></foreignObject></g></g><g style="opacity: 1;" transform="" class="edgeLabel"><g class="label" transform="translate(0,0)"><rect height="0" width="0" ry="0" rx="0"></rect><foreignObject height="0" width="0"><div style="display: inline-block; white-space: nowrap;" xmlns="http://www.w3.org/1999/xhtml"><span style="" class="edgeLabel L-LS-a' L-LE-b2" id="L-L-a-b2"></span></div></foreignObject></g></g><g style="opacity: 1;" transform="" class="edgeLabel"><g class="label" transform="translate(0,0)"><rect height="0" width="0" ry="0" rx="0"></rect><foreignObject height="0" width="0"><div style="display: inline-block; white-space: nowrap;" xmlns="http://www.w3.org/1999/xhtml"><span style="" class="edgeLabel L-LS-b2' L-LE-c" id="L-L-b2-c"></span></div></foreignObject></g></g><g style="opacity: 1;" transform="translate(327.890625,277)" class="edgeLabel"><g class="label" transform="translate(-15.8984375,-12)"><rect height="24" width="31.796875" ry="0" rx="0"></rect><foreignObject height="24" width="31.796875"><div style="display: inline-block; white-space: nowrap;" xmlns="http://www.w3.org/1999/xhtml"><span style="" class="edgeLabel L-LS-c' L-LE-d1" id="L-L-c-d1">ANSI</span></div></foreignObject></g></g><g style="opacity: 1;" transform="" class="edgeLabel"><g class="label" transform="translate(0,0)"><rect height="0" width="0" ry="0" rx="0"></rect><foreignObject height="0" width="0"><div style="display: inline-block; white-space: nowrap;" xmlns="http://www.w3.org/1999/xhtml"><span style="" class="edgeLabel L-LS-d1' L-LE-g1" id="L-L-d1-g1"></span></div></foreignObject></g></g><g style="opacity: 1;" transform="" class="edgeLabel"><g class="label" transform="translate(0,0)"><rect height="0" width="0" ry="0" rx="0"></rect><foreignObject height="0" width="0"><div style="display: inline-block; white-space: nowrap;" xmlns="http://www.w3.org/1999/xhtml"><span style="" class="edgeLabel L-LS-g1' L-LE-e" id="L-L-g1-e"></span></div></foreignObject></g></g><g style="opacity: 1;" transform="" class="edgeLabel"><g class="label" transform="translate(0,0)"><rect height="0" width="0" ry="0" rx="0"></rect><foreignObject height="0" width="0"><div style="display: inline-block; white-space: nowrap;" xmlns="http://www.w3.org/1999/xhtml"><span style="" class="edgeLabel L-LS-e' L-LE-e2" id="L-L-e-e2"></span></div></foreignObject></g></g><g style="opacity: 1;" transform="" class="edgeLabel"><g class="label" transform="translate(0,0)"><rect height="0" width="0" ry="0" rx="0"></rect><foreignObject height="0" width="0"><div style="display: inline-block; white-space: nowrap;" xmlns="http://www.w3.org/1999/xhtml"><span style="" class="edgeLabel L-LS-e2' L-LE-f5" id="L-L-e2-f5"></span></div></foreignObject></g></g><g style="opacity: 1;" transform="" class="edgeLabel"><g class="label" transform="translate(0,0)"><rect height="0" width="0" ry="0" rx="0"></rect><foreignObject height="0" width="0"><div style="display: inline-block; white-space: nowrap;" xmlns="http://www.w3.org/1999/xhtml"><span style="" class="edgeLabel L-LS-f5' L-LE-f1" id="L-L-f5-f1"></span></div></foreignObject></g></g><g style="opacity: 1;" transform="" class="edgeLabel"><g class="label" transform="translate(0,0)"><rect height="0" width="0" ry="0" rx="0"></rect><foreignObject height="0" width="0"><div style="display: inline-block; white-space: nowrap;" xmlns="http://www.w3.org/1999/xhtml"><span style="" class="edgeLabel L-LS-d1' L-LE-g2" id="L-L-d1-g2"></span></div></foreignObject></g></g><g style="opacity: 1;" transform="" class="edgeLabel"><g class="label" transform="translate(0,0)"><rect height="0" width="0" ry="0" rx="0"></rect><foreignObject height="0" width="0"><div style="display: inline-block; white-space: nowrap;" xmlns="http://www.w3.org/1999/xhtml"><span style="" class="edgeLabel L-LS-g2' L-LE-e3" id="L-L-g2-e3"></span></div></foreignObject></g></g><g style="opacity: 1;" transform="translate(337.890625,583)" class="edgeLabel"><g class="label" transform="translate(-21.1640625,-12)"><rect height="24" width="42.328125" ry="0" rx="0"></rect><foreignObject height="24" width="42.328125"><div style="display: inline-block; white-space: nowrap;" xmlns="http://www.w3.org/1999/xhtml"><span style="" class="edgeLabel L-LS-e3' L-LE-d2" id="L-L-e3-d2">UTF-8</span></div></foreignObject></g></g><g style="opacity: 1;" transform="" class="edgeLabel"><g class="label" transform="translate(0,0)"><rect height="0" width="0" ry="0" rx="0"></rect><foreignObject height="0" width="0"><div style="display: inline-block; white-space: nowrap;" xmlns="http://www.w3.org/1999/xhtml"><span style="" class="edgeLabel L-LS-d2' L-LE-f3" id="L-L-d2-f3"></span></div></foreignObject></g></g><g style="opacity: 1;" transform="" class="edgeLabel"><g class="label" transform="translate(0,0)"><rect height="0" width="0" ry="0" rx="0"></rect><foreignObject height="0" width="0"><div style="display: inline-block; white-space: nowrap;" xmlns="http://www.w3.org/1999/xhtml"><span style="" class="edgeLabel L-LS-d2' L-LE-g1" id="L-L-d2-g1"></span></div></foreignObject></g></g><g style="opacity: 1;" transform="" class="edgeLabel"><g class="label" transform="translate(0,0)"><rect height="0" width="0" ry="0" rx="0"></rect><foreignObject height="0" width="0"><div style="display: inline-block; white-space: nowrap;" xmlns="http://www.w3.org/1999/xhtml"><span style="" class="edgeLabel L-LS-d2' L-LE-g3" id="L-L-d2-g3"></span></div></foreignObject></g></g><g style="opacity: 1;" transform="" class="edgeLabel"><g class="label" transform="translate(0,0)"><rect height="0" width="0" ry="0" rx="0"></rect><foreignObject height="0" width="0"><div style="display: inline-block; white-space: nowrap;" xmlns="http://www.w3.org/1999/xhtml"><span style="" class="edgeLabel L-LS-g3' L-LE-f5" id="L-L-g3-f5"></span></div></foreignObject></g></g><g style="opacity: 1;" transform="" class="edgeLabel"><g class="label" transform="translate(0,0)"><rect height="0" width="0" ry="0" rx="0"></rect><foreignObject height="0" width="0"><div style="display: inline-block; white-space: nowrap;" xmlns="http://www.w3.org/1999/xhtml"><span style="" class="edgeLabel L-LS-d1' L-LE-f3" id="L-L-d1-f3"></span></div></foreignObject></g></g><g style="opacity: 1;" transform="" class="edgeLabel"><g class="label" transform="translate(0,0)"><rect height="0" width="0" ry="0" rx="0"></rect><foreignObject height="0" width="0"><div style="display: inline-block; white-space: nowrap;" xmlns="http://www.w3.org/1999/xhtml"><span style="" class="edgeLabel L-LS-f3' L-LE-f4" id="L-L-f3-f4"></span></div></foreignObject></g></g><g style="opacity: 1;" transform="" class="edgeLabel"><g class="label" transform="translate(0,0)"><rect height="0" width="0" ry="0" rx="0"></rect><foreignObject height="0" width="0"><div style="display: inline-block; white-space: nowrap;" xmlns="http://www.w3.org/1999/xhtml"><span style="" class="edgeLabel L-LS-f4' L-LE-f2" id="L-L-f4-f2"></span></div></foreignObject></g></g></g><g class="nodes"><g style="opacity: 1;" transform="translate(205.6328125,30)" id="flowchart-a-286" class="node default"><rect class="label-container" height="44" width="120.28125" y="-22" x="-60.140625" ry="5" rx="5"></rect><g transform="translate(0,0)" class="label"><g transform="translate(-50.140625,-12)"><foreignObject height="24" width="100.28125"><div style="display: inline-block; white-space: nowrap;" xmlns="http://www.w3.org/1999/xhtml">Public Version</div></foreignObject></g></g></g><g style="opacity: 1;" transform="translate(83.375,124)" id="flowchart-b1-287" class="node default"><rect class="label-container" height="44" width="121.5" y="-22" x="-60.75" ry="5" rx="5"></rect><g transform="translate(0,0)" class="label"><g transform="translate(-50.75,-12)"><foreignObject height="24" width="101.5"><div style="display: inline-block; white-space: nowrap;" xmlns="http://www.w3.org/1999/xhtml">未给定 list.txt</div></foreignObject></g></g></g><g style="opacity: 1;" transform="translate(83.375,218)" id="flowchart-e1-289" class="node default"><rect class="label-container" height="44" width="150.75" y="-22" x="-75.375" ry="5" rx="5"></rect><g transform="translate(0,0)" class="label"><g transform="translate(-65.375,-12)"><foreignObject height="24" width="130.75"><div style="display: inline-block; white-space: nowrap;" xmlns="http://www.w3.org/1999/xhtml">FileNotFoundError</div></foreignObject></g></g></g><g style="opacity: 1;" transform="translate(205.6328125,1262)" id="flowchart-f1-291" class="node default"><polygon class="label-container" transform="translate(-72,72)" points="72,0 144,-72 72,-144 0,-72"></polygon><g transform="translate(0,0)" class="label"><g transform="translate(-48,-12)"><foreignObject height="24" width="96"><div style="display: inline-block; white-space: nowrap;" xmlns="http://www.w3.org/1999/xhtml">启用备用元组</div></foreignObject></g></g></g><g style="opacity: 1;" transform="translate(311.6328125,1424.3080673217773)" id="flowchart-f2-293" class="node default"><path class="label-container" transform="translate(-59.6484375,-40.312280140709944)" d="M 0,12.208186760473298 a 59.6484375,12.208186760473298 0,0,0 119.296875 0 a 59.6484375,12.208186760473298 0,0,0 -119.296875 0 l 0,56.208186760473296 a 59.6484375,12.208186760473298 0,0,0 119.296875 0 l 0,-56.208186760473296"></path><g transform="translate(0,0)" class="label"><g transform="translate(-49.6484375,-12)"><foreignObject height="24" width="99.296875"><div style="display: inline-block; white-space: nowrap;" xmlns="http://www.w3.org/1999/xhtml">进入 GUI 部分</div></foreignObject></g></g></g><g style="opacity: 1;" transform="translate(327.890625,124)" id="flowchart-b2-295" class="node default"><rect class="label-container" height="44" width="105.5" y="-22" x="-52.75" ry="5" rx="5"></rect><g transform="translate(0,0)" class="label"><g transform="translate(-42.75,-12)"><foreignObject height="24" width="85.5"><div style="display: inline-block; white-space: nowrap;" xmlns="http://www.w3.org/1999/xhtml">给定 list.txt</div></foreignObject></g></g></g><g style="opacity: 1;" transform="translate(327.890625,218)" id="flowchart-c-297" class="node default"><rect class="label-container" height="44" width="105.5" y="-22" x="-52.75" ry="5" rx="5"></rect><g transform="translate(0,0)" class="label"><g transform="translate(-42.75,-12)"><foreignObject height="24" width="85.5"><div style="display: inline-block; white-space: nowrap;" xmlns="http://www.w3.org/1999/xhtml">输入 list.txt</div></foreignObject></g></g></g><g style="opacity: 1;" transform="translate(327.890625,336)" id="flowchart-d1-299" class="node default"><rect class="label-container" height="44" width="148" y="-22" x="-74" ry="5" rx="5"></rect><g transform="translate(0,0)" class="label"><g transform="translate(-64,-12)"><foreignObject height="24" width="128"><div style="display: inline-block; white-space: nowrap;" xmlns="http://www.w3.org/1999/xhtml">读取并处理为列表</div></foreignObject></g></g></g><g style="opacity: 1;" transform="translate(175.90625,736)" id="flowchart-g1-301" class="node default"><rect class="label-container" height="44" width="84" y="-22" x="-42" ry="5" rx="5"></rect><g transform="translate(0,0)" class="label"><g transform="translate(-32,-12)"><foreignObject height="24" width="64"><div style="display: inline-block; white-space: nowrap;" xmlns="http://www.w3.org/1999/xhtml">列表为空</div></foreignObject></g></g></g><g style="opacity: 1;" transform="translate(175.90625,930)" id="flowchart-e-303" class="node default"><rect class="label-container" height="44" width="54.390625" y="-22" x="-27.1953125" ry="5" rx="5"></rect><g transform="translate(0,0)" class="label"><g transform="translate(-17.1953125,-12)"><foreignObject height="24" width="34.390625"><div style="display: inline-block; white-space: nowrap;" xmlns="http://www.w3.org/1999/xhtml">raise</div></foreignObject></g></g></g><g style="opacity: 1;" transform="translate(175.90625,1024)" id="flowchart-e2-305" class="node default"><rect class="label-container" height="44" width="115.0625" y="-22" x="-57.53125" ry="5" rx="5"></rect><g transform="translate(0,0)" class="label"><g transform="translate(-47.53125,-12)"><foreignObject height="24" width="95.0625"><div style="display: inline-block; white-space: nowrap;" xmlns="http://www.w3.org/1999/xhtml">RuntimeError</div></foreignObject></g></g></g><g style="opacity: 1;" transform="translate(294.6953125,1118)" id="flowchart-f5-307" class="node default"><rect class="label-container" height="44" width="84" y="-22" x="-42" ry="5" rx="5"></rect><g transform="translate(0,0)" class="label"><g transform="translate(-32,-12)"><foreignObject height="24" width="64"><div style="display: inline-block; white-space: nowrap;" xmlns="http://www.w3.org/1999/xhtml">显示警告</div></foreignObject></g></g></g><g style="opacity: 1;" transform="translate(337.890625,430)" id="flowchart-g2-311" class="node default"><rect class="label-container" height="44" width="109.4375" y="-22" x="-54.71875" ry="5" rx="5"></rect><g transform="translate(0,0)" class="label"><g transform="translate(-44.71875,-12)"><foreignObject height="24" width="89.4375"><div style="display: inline-block; white-space: nowrap;" xmlns="http://www.w3.org/1999/xhtml">非 ANSI 编码</div></foreignObject></g></g></g><g style="opacity: 1;" transform="translate(337.890625,524)" id="flowchart-e3-313" class="node default"><rect class="label-container" height="44" width="166.328125" y="-22" x="-83.1640625" ry="5" rx="5"></rect><g transform="translate(0,0)" class="label"><g transform="translate(-73.1640625,-12)"><foreignObject height="24" width="146.328125"><div style="display: inline-block; white-space: nowrap;" xmlns="http://www.w3.org/1999/xhtml">UnicodeDecodeError</div></foreignObject></g></g></g><g style="opacity: 1;" transform="translate(337.890625,642)" id="flowchart-d2-315" class="node default"><rect class="label-container" height="44" width="148" y="-22" x="-74" ry="5" rx="5"></rect><g transform="translate(0,0)" class="label"><g transform="translate(-64,-12)"><foreignObject height="24" width="128"><div style="display: inline-block; white-space: nowrap;" xmlns="http://www.w3.org/1999/xhtml">读取并处理为列表</div></foreignObject></g></g></g><g style="opacity: 1;" transform="translate(535.8828125,736)" id="flowchart-f3-317" class="node default"><rect class="label-container" height="44" width="148" y="-22" x="-74" ry="5" rx="5"></rect><g transform="translate(0,0)" class="label"><g transform="translate(-64,-12)"><foreignObject height="24" width="128"><div style="display: inline-block; white-space: nowrap;" xmlns="http://www.w3.org/1999/xhtml">处理为集合以去重</div></foreignObject></g></g></g><g style="opacity: 1;" transform="translate(327.890625,736)" id="flowchart-g3-321" class="node default"><rect class="label-container" height="44" width="119.96875" y="-22" x="-59.984375" ry="5" rx="5"></rect><g transform="translate(0,0)" class="label"><g transform="translate(-49.984375,-12)"><foreignObject height="24" width="99.96875"><div style="display: inline-block; white-space: nowrap;" xmlns="http://www.w3.org/1999/xhtml">非 UTF-8 编码</div></foreignObject></g></g></g><g style="opacity: 1;" transform="translate(535.8828125,1262)" id="flowchart-f4-327" class="node default"><rect class="label-container" height="44" width="180" y="-22" x="-90" ry="5" rx="5"></rect><g transform="translate(0,0)" class="label"><g transform="translate(-80,-12)"><foreignObject height="24" width="160"><div style="display: inline-block; white-space: nowrap;" xmlns="http://www.w3.org/1999/xhtml">处理为元组以防止修改</div></foreignObject></g></g></g></g></g></g></svg>
