<svg viewBox="0 0 793.25 1415.916015625" style="max-width: 793.25px;" aria-labelledby="chart-title-mermaid-svg chart-desc-mermaid-svg" role="img" xmlns="http://www.w3.org/2000/svg" width="100%" id="mermaid-svg"><title id="chart-title-mermaid-svg"></title><desc id="chart-desc-mermaid-svg"></desc><style>#mermaid-svg {font-family:"trebuchet ms",verdana,arial,sans-serif;font-size:16px;fill:#333;}#mermaid-svg .error-icon{fill:#552222;}#mermaid-svg .error-text{fill:#552222;stroke:#552222;}#mermaid-svg .edge-thickness-normal{stroke-width:2px;}#mermaid-svg .edge-thickness-thick{stroke-width:3.5px;}#mermaid-svg .edge-pattern-solid{stroke-dasharray:0;}#mermaid-svg .edge-pattern-dashed{stroke-dasharray:3;}#mermaid-svg .edge-pattern-dotted{stroke-dasharray:2;}#mermaid-svg .marker{fill:#333333;stroke:#333333;}#mermaid-svg .marker.cross{stroke:#333333;}#mermaid-svg svg{font-family:"trebuchet ms",verdana,arial,sans-serif;font-size:16px;}#mermaid-svg .label{font-family:"trebuchet ms",verdana,arial,sans-serif;color:#333;}#mermaid-svg .cluster-label text{fill:#333;}#mermaid-svg .cluster-label span{color:#333;}#mermaid-svg .label text,#mermaid-svg span{fill:#333;color:#333;}#mermaid-svg .node rect,#mermaid-svg .node circle,#mermaid-svg .node ellipse,#mermaid-svg .node polygon,#mermaid-svg .node path{fill:#ECECFF;stroke:#9370DB;stroke-width:1px;}#mermaid-svg .node .label{text-align:center;}#mermaid-svg .node.clickable{cursor:pointer;}#mermaid-svg .arrowheadPath{fill:#333333;}#mermaid-svg .edgePath .path{stroke:#333333;stroke-width:2.0px;}#mermaid-svg .flowchart-link{stroke:#333333;fill:none;}#mermaid-svg .edgeLabel{background-color:#e8e8e8;text-align:center;}#mermaid-svg .edgeLabel rect{opacity:0.5;background-color:#e8e8e8;fill:#e8e8e8;}#mermaid-svg .cluster rect{fill:#ffffde;stroke:#aaaa33;stroke-width:1px;}#mermaid-svg .cluster text{fill:#333;}#mermaid-svg .cluster span{color:#333;}#mermaid-svg div.mermaidTooltip{position:absolute;text-align:center;max-width:200px;padding:2px;font-family:"trebuchet ms",verdana,arial,sans-serif;font-size:12px;background:hsl(80, 100%, 96.2745098039%);border:1px solid #aaaa33;border-radius:2px;pointer-events:none;z-index:100;}#mermaid-svg :root{--mermaid-font-family:"trebuchet ms",verdana,arial,sans-serif;}</style><g><g class="output"><g class="clusters"></g><g class="edgePaths"><g style="opacity: 1;" id="L-a-b1" class="edgePath LS-a LE-b1"><path style="fill:none" marker-end="url(#arrowhead158)" d="M193.27656173706055,43.23878732010397L174.9596347808838,48.0323227667533C156.64270782470703,52.82585821340265,120.00885391235352,62.41292910670132,101.69192695617676,71.37313122001733C83.375,80.33333333333333,83.375,88.66666666666667,83.375,92.83333333333333L83.375,97" class="path"></path><defs><marker orient="auto" markerHeight="6" markerWidth="8" markerUnits="strokeWidth" refY="5" refX="9" viewBox="0 0 10 10" id="arrowhead158"><path style="stroke-width: 1; stroke-dasharray: 1, 0;" class="arrowheadPath" d="M 0 0 L 10 5 L 0 10 z"></path></marker></defs></g><g style="opacity: 1;" id="L-b1-e1" class="edgePath LS-b1 LE-e1"><path style="fill:none" marker-end="url(#arrowhead159)" d="M83.375,138L83.375,142.16666666666666C83.375,146.33333333333334,83.375,154.66666666666666,83.375,163.16666666666666C83.375,171.66666666666666,83.375,180.33333333333334,83.375,184.66666666666666L83.375,189" class="path"></path><defs><marker orient="auto" markerHeight="6" markerWidth="8" markerUnits="strokeWidth" refY="5" refX="9" viewBox="0 0 10 10" id="arrowhead159"><path style="stroke-width: 1; stroke-dasharray: 1, 0;" class="arrowheadPath" d="M 0 0 L 10 5 L 0 10 z"></path></marker></defs></g><g style="opacity: 1;" id="L-e1-f1" class="edgePath LS-e1 LE-f1"><path style="fill:none" marker-end="url(#arrowhead160)" d="M83.375,228L83.375,233.91666666666666C83.375,239.83333333333334,83.375,251.66666666666666,83.375,266.75C83.375,281.8333333333333,83.375,300.1666666666667,83.375,316.9166666666667C83.375,333.6666666666667,83.375,348.8333333333333,83.375,364C83.375,379.1666666666667,83.375,394.3333333333333,83.375,409.5C83.375,424.6666666666667,83.375,439.8333333333333,83.375,454.8333333333333C83.375,469.8333333333333,83.375,484.6666666666667,83.375,501.0833333333333C83.375,517.5,83.375,535.5,83.375,553.6666666666666C83.375,571.8333333333334,83.375,590.1666666666666,83.375,606.9166666666666C83.375,623.6666666666666,83.375,638.8333333333334,83.375,654C83.375,669.1666666666666,83.375,684.3333333333334,83.375,699.5C83.375,714.6666666666666,83.375,729.8333333333334,83.375,741.5833333333334C83.375,753.3333333333334,83.375,761.6666666666666,83.375,770C83.375,778.3333333333334,83.375,786.6666666666666,83.375,795C83.375,803.3333333333334,83.375,811.6666666666666,83.375,820C83.375,828.3333333333334,83.375,836.6666666666666,83.375,848.25C83.375,859.8333333333334,83.375,874.6666666666666,83.375,889.5C83.375,904.3333333333334,83.375,919.1666666666666,83.375,934C83.375,948.8333333333334,83.375,963.6666666666666,83.375,978.5C83.375,993.3333333333334,83.375,1008.1666666666666,83.375,1023.1666666666666C83.375,1038.1666666666667,83.375,1053.3333333333333,83.375,1068.5C83.375,1083.6666666666667,83.375,1098.8333333333333,106.28231274750304,1118.4051869981838C129.18962549500608,1137.9770406630344,175.00425099001214,1161.9540813260687,197.9115637375152,1173.942601657586L220.81887648501825,1185.931121989103" class="path"></path><defs><marker orient="auto" markerHeight="6" markerWidth="8" markerUnits="strokeWidth" refY="5" refX="9" viewBox="0 0 10 10" id="arrowhead160"><path style="stroke-width: 1; stroke-dasharray: 1, 0;" class="arrowheadPath" d="M 0 0 L 10 5 L 0 10 z"></path></marker></defs></g><g style="opacity: 1;" id="L-f1-f2" class="edgePath LS-f1 LE-f2"><path style="fill:none" marker-end="url(#arrowhead161)" d="M267.25,1280.7999984741207L267.1666666666667,1284.8833325703936C267.0833333333333,1288.9666666666665,266.9166666666667,1297.1333348592123,292.6002604166667,1308.890591093215C318.2838541666667,1320.647847327218,369.8177083333333,1335.9956916026779,395.5846354166667,1343.669613740408L421.3515625,1351.343535878138" class="path"></path><defs><marker orient="auto" markerHeight="6" markerWidth="8" markerUnits="strokeWidth" refY="5" refX="9" viewBox="0 0 10 10" id="arrowhead161"><path style="stroke-width: 1; stroke-dasharray: 1, 0;" class="arrowheadPath" d="M 0 0 L 10 5 L 0 10 z"></path></marker></defs></g><g style="opacity: 1;" id="L-a-b3" class="edgePath LS-a LE-b3"><path style="fill:none" marker-end="url(#arrowhead162)" d="M259.25965547025874,47L260.5080462252156,51.166666666666664C261.7564369801725,55.333333333333336,264.2532184900862,63.666666666666664,265.5016092450431,72C266.75,80.33333333333333,266.75,88.66666666666667,266.75,92.83333333333333L266.75,97" class="path"></path><defs><marker orient="auto" markerHeight="6" markerWidth="8" markerUnits="strokeWidth" refY="5" refX="9" viewBox="0 0 10 10" id="arrowhead162"><path style="stroke-width: 1; stroke-dasharray: 1, 0;" class="arrowheadPath" d="M 0 0 L 10 5 L 0 10 z"></path></marker></defs></g><g style="opacity: 1;" id="L-b3-e4" class="edgePath LS-b3 LE-e4"><path style="fill:none" marker-end="url(#arrowhead163)" d="M266.75,138L266.75,142.16666666666666C266.75,146.33333333333334,266.75,154.66666666666666,266.75,163C266.75,171.33333333333334,266.75,179.66666666666666,266.75,183.83333333333334L266.75,188" class="path"></path><defs><marker orient="auto" markerHeight="6" markerWidth="8" markerUnits="strokeWidth" refY="5" refX="9" viewBox="0 0 10 10" id="arrowhead163"><path style="stroke-width: 1; stroke-dasharray: 1, 0;" class="arrowheadPath" d="M 0 0 L 10 5 L 0 10 z"></path></marker></defs></g><g style="opacity: 1;" id="L-e4-f6" class="edgePath LS-e4 LE-f6"><path style="fill:none" marker-end="url(#arrowhead164)" d="M266.75,229L266.75,234.75C266.75,240.5,266.75,252,266.75,263.5C266.75,275,266.75,286.5,266.75,292.25L266.75,298" class="path"></path><defs><marker orient="auto" markerHeight="6" markerWidth="8" markerUnits="strokeWidth" refY="5" refX="9" viewBox="0 0 10 10" id="arrowhead164"><path style="stroke-width: 1; stroke-dasharray: 1, 0;" class="arrowheadPath" d="M 0 0 L 10 5 L 0 10 z"></path></marker></defs></g><g style="opacity: 1;" id="L-f6-f1" class="edgePath LS-f6 LE-f1"><path style="fill:none" marker-end="url(#arrowhead165)" d="M266.75,339L266.75,343.1666666666667C266.75,347.3333333333333,266.75,355.6666666666667,266.75,367.4166666666667C266.75,379.1666666666667,266.75,394.3333333333333,266.75,409.5C266.75,424.6666666666667,266.75,439.8333333333333,266.75,454.8333333333333C266.75,469.8333333333333,266.75,484.6666666666667,266.75,501.0833333333333C266.75,517.5,266.75,535.5,266.75,553.6666666666666C266.75,571.8333333333334,266.75,590.1666666666666,266.75,606.9166666666666C266.75,623.6666666666666,266.75,638.8333333333334,266.75,654C266.75,669.1666666666666,266.75,684.3333333333334,266.75,699.5C266.75,714.6666666666666,266.75,729.8333333333334,266.75,741.5833333333334C266.75,753.3333333333334,266.75,761.6666666666666,266.75,770C266.75,778.3333333333334,266.75,786.6666666666666,266.75,795C266.75,803.3333333333334,266.75,811.6666666666666,266.75,820C266.75,828.3333333333334,266.75,836.6666666666666,266.75,848.25C266.75,859.8333333333334,266.75,874.6666666666666,266.75,889.5C266.75,904.3333333333334,266.75,919.1666666666666,266.75,934C266.75,948.8333333333334,266.75,963.6666666666666,266.75,978.5C266.75,993.3333333333334,266.75,1008.1666666666666,266.75,1023.1666666666666C266.75,1038.1666666666667,266.75,1053.3333333333333,266.75,1068.5C266.75,1083.6666666666667,266.75,1098.8333333333333,266.8333333333333,1110.6666669209799C266.9166666666667,1122.5000005086263,267.0833333333333,1131.0000010172525,267.1666666666667,1135.2500012715657L267.25,1139.5000015258788" class="path"></path><defs><marker orient="auto" markerHeight="6" markerWidth="8" markerUnits="strokeWidth" refY="5" refX="9" viewBox="0 0 10 10" id="arrowhead165"><path style="stroke-width: 1; stroke-dasharray: 1, 0;" class="arrowheadPath" d="M 0 0 L 10 5 L 0 10 z"></path></marker></defs></g><g style="opacity: 1;" id="L-a-b2" class="edgePath LS-a LE-b2"><path style="fill:none" marker-end="url(#arrowhead166)" d="M313.55781173706055,38.44514026455364L344.28697840372723,44.03761688712803C375.01614507039386,49.63009350970243,436.47447840372723,60.81504675485121,467.20364507039386,70.57419004409228C497.93281173706055,80.33333333333333,497.93281173706055,88.66666666666667,497.93281173706055,92.83333333333333L497.93281173706055,97" class="path"></path><defs><marker orient="auto" markerHeight="6" markerWidth="8" markerUnits="strokeWidth" refY="5" refX="9" viewBox="0 0 10 10" id="arrowhead166"><path style="stroke-width: 1; stroke-dasharray: 1, 0;" class="arrowheadPath" d="M 0 0 L 10 5 L 0 10 z"></path></marker></defs></g><g style="opacity: 1;" id="L-b2-c" class="edgePath LS-b2 LE-c"><path style="fill:none" marker-end="url(#arrowhead167)" d="M497.93281173706055,138L497.93281173706055,142.16666666666666C497.93281173706055,146.33333333333334,497.93281173706055,154.66666666666666,497.93281173706055,163C497.93281173706055,171.33333333333334,497.93281173706055,179.66666666666666,497.93281173706055,183.83333333333334L497.93281173706055,188" class="path"></path><defs><marker orient="auto" markerHeight="6" markerWidth="8" markerUnits="strokeWidth" refY="5" refX="9" viewBox="0 0 10 10" id="arrowhead167"><path style="stroke-width: 1; stroke-dasharray: 1, 0;" class="arrowheadPath" d="M 0 0 L 10 5 L 0 10 z"></path></marker></defs></g><g style="opacity: 1;" id="L-c-d1" class="edgePath LS-c LE-d1"><path style="fill:none" marker-end="url(#arrowhead168)" d="M497.93281173706055,229L497.93281173706055,234.75C497.93281173706055,240.5,497.93281173706055,252,497.93281173706055,263.5C497.93281173706055,275,497.93281173706055,286.5,497.93281173706055,292.25L497.93281173706055,298" class="path"></path><defs><marker orient="auto" markerHeight="6" markerWidth="8" markerUnits="strokeWidth" refY="5" refX="9" viewBox="0 0 10 10" id="arrowhead168"><path style="stroke-width: 1; stroke-dasharray: 1, 0;" class="arrowheadPath" d="M 0 0 L 10 5 L 0 10 z"></path></marker></defs></g><g style="opacity: 1;" id="L-d1-g1" class="edgePath LS-d1 LE-g1"><path style="fill:none" marker-end="url(#arrowhead169)" d="M423.93281173706055,337.7491090373032L407.1132806142171,342.124257531086C390.2937494913737,346.49940602486885,356.65468724568683,355.2497030124344,339.83515612284344,367.20818483955054C323.015625,379.1666666666667,323.015625,394.3333333333333,323.015625,409.5C323.015625,424.6666666666667,323.015625,439.8333333333333,323.015625,454.8333333333333C323.015625,469.8333333333333,323.015625,484.6666666666667,323.015625,501.0833333333333C323.015625,517.5,323.015625,535.5,323.015625,553.6666666666666C323.015625,571.8333333333334,323.015625,590.1666666666666,323.015625,606.9166666666666C323.015625,623.6666666666666,323.015625,638.8333333333334,326.3366529304029,650.5833333333334C329.65768086080584,662.3333333333334,336.29973672161174,670.6666666666666,339.62076465201466,674.8333333333334L342.9417925824176,679" class="path"></path><defs><marker orient="auto" markerHeight="6" markerWidth="8" markerUnits="strokeWidth" refY="5" refX="9" viewBox="0 0 10 10" id="arrowhead169"><path style="stroke-width: 1; stroke-dasharray: 1, 0;" class="arrowheadPath" d="M 0 0 L 10 5 L 0 10 z"></path></marker></defs></g><g style="opacity: 1;" id="L-g1-e" class="edgePath LS-g1 LE-e"><path style="fill:none" marker-end="url(#arrowhead170)" d="M359.28125,720L359.28125,724.1666666666666C359.28125,728.3333333333334,359.28125,736.6666666666666,359.28125,745C359.28125,753.3333333333334,359.28125,761.6666666666666,359.28125,770C359.28125,778.3333333333334,359.28125,786.6666666666666,359.28125,795C359.28125,803.3333333333334,359.28125,811.6666666666666,359.28125,820C359.28125,828.3333333333334,359.28125,836.6666666666666,359.28125,845C359.28125,853.3333333333334,359.28125,861.6666666666666,359.28125,865.8333333333334L359.28125,870" class="path"></path><defs><marker orient="auto" markerHeight="6" markerWidth="8" markerUnits="strokeWidth" refY="5" refX="9" viewBox="0 0 10 10" id="arrowhead170"><path style="stroke-width: 1; stroke-dasharray: 1, 0;" class="arrowheadPath" d="M 0 0 L 10 5 L 0 10 z"></path></marker></defs></g><g style="opacity: 1;" id="L-e-e2" class="edgePath LS-e LE-e2"><path style="fill:none" marker-end="url(#arrowhead171)" d="M359.28125,909L359.28125,913.1666666666666C359.28125,917.3333333333334,359.28125,925.6666666666666,359.28125,934C359.28125,942.3333333333334,359.28125,950.6666666666666,359.28125,954.8333333333334L359.28125,959" class="path"></path><defs><marker orient="auto" markerHeight="6" markerWidth="8" markerUnits="strokeWidth" refY="5" refX="9" viewBox="0 0 10 10" id="arrowhead171"><path style="stroke-width: 1; stroke-dasharray: 1, 0;" class="arrowheadPath" d="M 0 0 L 10 5 L 0 10 z"></path></marker></defs></g><g style="opacity: 1;" id="L-e2-f5" class="edgePath LS-e2 LE-f5"><path style="fill:none" marker-end="url(#arrowhead172)" d="M359.28125,998L359.28125,1002.1666666666666C359.28125,1006.3333333333334,359.28125,1014.6666666666666,368.84687487284344,1023.2122398043662C378.41249974568683,1031.7578129420656,397.5437494913737,1040.5156258841312,407.1093743642171,1044.894532355164L416.67499923706055,1049.2734388261968" class="path"></path><defs><marker orient="auto" markerHeight="6" markerWidth="8" markerUnits="strokeWidth" refY="5" refX="9" viewBox="0 0 10 10" id="arrowhead172"><path style="stroke-width: 1; stroke-dasharray: 1, 0;" class="arrowheadPath" d="M 0 0 L 10 5 L 0 10 z"></path></marker></defs></g><g style="opacity: 1;" id="L-f5-f1" class="edgePath LS-f5 LE-f1"><path style="fill:none" marker-end="url(#arrowhead173)" d="M458.67499923706055,1089L458.67499923706055,1093.1666666666667C458.67499923706055,1097.3333333333333,458.67499923706055,1105.6666666666667,434.62936302884077,1121.9418639189369C410.583726820621,1138.217061171207,362.4924544041815,1162.4341223424137,338.4468181959617,1174.5426529280173L314.401181987742,1186.6511835136207" class="path"></path><defs><marker orient="auto" markerHeight="6" markerWidth="8" markerUnits="strokeWidth" refY="5" refX="9" viewBox="0 0 10 10" id="arrowhead173"><path style="stroke-width: 1; stroke-dasharray: 1, 0;" class="arrowheadPath" d="M 0 0 L 10 5 L 0 10 z"></path></marker></defs></g><g style="opacity: 1;" id="L-d1-g2" class="edgePath LS-d1 LE-g2"><path style="fill:none" marker-end="url(#arrowhead174)" d="M508.4453979324509,339L510.58210244370906,343.1666666666667C512.7188069549672,347.3333333333333,516.9922159774836,355.6666666666667,519.1289204887418,364C521.265625,372.3333333333333,521.265625,380.6666666666667,521.265625,384.8333333333333L521.265625,389" class="path"></path><defs><marker orient="auto" markerHeight="6" markerWidth="8" markerUnits="strokeWidth" refY="5" refX="9" viewBox="0 0 10 10" id="arrowhead174"><path style="stroke-width: 1; stroke-dasharray: 1, 0;" class="arrowheadPath" d="M 0 0 L 10 5 L 0 10 z"></path></marker></defs></g><g style="opacity: 1;" id="L-g2-e3" class="edgePath LS-g2 LE-e3"><path style="fill:none" marker-end="url(#arrowhead175)" d="M521.265625,430L521.265625,434.1666666666667C521.265625,438.3333333333333,521.265625,446.6666666666667,521.265625,455C521.265625,463.3333333333333,521.265625,471.6666666666667,521.265625,475.8333333333333L521.265625,480" class="path"></path><defs><marker orient="auto" markerHeight="6" markerWidth="8" markerUnits="strokeWidth" refY="5" refX="9" viewBox="0 0 10 10" id="arrowhead175"><path style="stroke-width: 1; stroke-dasharray: 1, 0;" class="arrowheadPath" d="M 0 0 L 10 5 L 0 10 z"></path></marker></defs></g><g style="opacity: 1;" id="L-e3-d2" class="edgePath LS-e3 LE-d2"><path style="fill:none" marker-end="url(#arrowhead176)" d="M521.265625,519L521.265625,524.75C521.265625,530.5,521.265625,542,521.265625,553.5C521.265625,565,521.265625,576.5,521.265625,582.25L521.265625,588" class="path"></path><defs><marker orient="auto" markerHeight="6" markerWidth="8" markerUnits="strokeWidth" refY="5" refX="9" viewBox="0 0 10 10" id="arrowhead176"><path style="stroke-width: 1; stroke-dasharray: 1, 0;" class="arrowheadPath" d="M 0 0 L 10 5 L 0 10 z"></path></marker></defs></g><g style="opacity: 1;" id="L-d2-f3" class="edgePath LS-d2 LE-f3"><path style="fill:none" marker-end="url(#arrowhead177)" d="M562.712654532967,629L571.1368475274725,633.1666666666666C579.561040521978,637.3333333333334,596.409426510989,645.6666666666666,612.3420615842491,654C628.2746966575091,662.3333333333334,643.2915808150183,670.6666666666666,650.8000228937728,674.8333333333334L658.3084649725274,679" class="path"></path><defs><marker orient="auto" markerHeight="6" markerWidth="8" markerUnits="strokeWidth" refY="5" refX="9" viewBox="0 0 10 10" id="arrowhead177"><path style="stroke-width: 1; stroke-dasharray: 1, 0;" class="arrowheadPath" d="M 0 0 L 10 5 L 0 10 z"></path></marker></defs></g><g style="opacity: 1;" id="L-d2-g1" class="edgePath LS-d2 LE-g1"><path style="fill:none" marker-end="url(#arrowhead178)" d="M478.01639766483515,629L469.22590430402926,633.1666666666666C460.4354109432234,637.3333333333334,442.8544242216117,645.6666666666666,428.02069024725273,654C413.1869562728937,662.3333333333334,401.10047504578756,670.6666666666666,395.05723443223445,674.8333333333334L389.01399381868134,679" class="path"></path><defs><marker orient="auto" markerHeight="6" markerWidth="8" markerUnits="strokeWidth" refY="5" refX="9" viewBox="0 0 10 10" id="arrowhead178"><path style="stroke-width: 1; stroke-dasharray: 1, 0;" class="arrowheadPath" d="M 0 0 L 10 5 L 0 10 z"></path></marker></defs></g><g style="opacity: 1;" id="L-d2-g3" class="edgePath LS-d2 LE-g3"><path style="fill:none" marker-end="url(#arrowhead179)" d="M516.7601304945055,629L515.8443795787546,633.1666666666666C514.9286286630037,637.3333333333334,513.0971268315019,645.6666666666666,512.1813759157509,654C511.265625,662.3333333333334,511.265625,670.6666666666666,511.265625,674.8333333333334L511.265625,679" class="path"></path><defs><marker orient="auto" markerHeight="6" markerWidth="8" markerUnits="strokeWidth" refY="5" refX="9" viewBox="0 0 10 10" id="arrowhead179"><path style="stroke-width: 1; stroke-dasharray: 1, 0;" class="arrowheadPath" d="M 0 0 L 10 5 L 0 10 z"></path></marker></defs></g><g style="opacity: 1;" id="L-g3-f5" class="edgePath LS-g3 LE-f5"><path style="fill:none" marker-end="url(#arrowhead180)" d="M511.265625,720L511.265625,724.1666666666666C511.265625,728.3333333333334,511.265625,736.6666666666666,511.265625,745C511.265625,753.3333333333334,511.265625,761.6666666666666,511.265625,770C511.265625,778.3333333333334,511.265625,786.6666666666666,511.265625,795C511.265625,803.3333333333334,511.265625,811.6666666666666,511.265625,820C511.265625,828.3333333333334,511.265625,836.6666666666666,511.265625,848.25C511.265625,859.8333333333334,511.265625,874.6666666666666,511.265625,889.5C511.265625,904.3333333333334,511.265625,919.1666666666666,511.265625,934C511.265625,948.8333333333334,511.265625,963.6666666666666,511.265625,978.5C511.265625,993.3333333333334,511.265625,1008.1666666666666,506.44963362976745,1019.75C501.63364225953484,1031.3333333333333,492.0016595190698,1039.6666666666667,487.18566814883724,1043.8333333333333L482.3696767786047,1048" class="path"></path><defs><marker orient="auto" markerHeight="6" markerWidth="8" markerUnits="strokeWidth" refY="5" refX="9" viewBox="0 0 10 10" id="arrowhead180"><path style="stroke-width: 1; stroke-dasharray: 1, 0;" class="arrowheadPath" d="M 0 0 L 10 5 L 0 10 z"></path></marker></defs></g><g style="opacity: 1;" id="L-d1-f3" class="edgePath LS-d1 LE-f3"><path style="fill:none" marker-end="url(#arrowhead181)" d="M571.9328117370605,334.74081451331307L594.1523431142172,339.6173454277609C616.3718744913737,344.49387634220875,660.8109372456869,354.2469381711044,683.0304686228434,366.7068024188855C705.25,379.1666666666667,705.25,394.3333333333333,705.25,409.5C705.25,424.6666666666667,705.25,439.8333333333333,705.25,454.8333333333333C705.25,469.8333333333333,705.25,484.6666666666667,705.25,501.0833333333333C705.25,517.5,705.25,535.5,705.25,553.6666666666666C705.25,571.8333333333334,705.25,590.1666666666666,705.25,606.9166666666666C705.25,623.6666666666666,705.25,638.8333333333334,704.3342490842491,650.5833333333334C703.4184981684981,662.3333333333334,701.5869963369963,670.6666666666666,700.6712454212455,674.8333333333334L699.7554945054945,679" class="path"></path><defs><marker orient="auto" markerHeight="6" markerWidth="8" markerUnits="strokeWidth" refY="5" refX="9" viewBox="0 0 10 10" id="arrowhead181"><path style="stroke-width: 1; stroke-dasharray: 1, 0;" class="arrowheadPath" d="M 0 0 L 10 5 L 0 10 z"></path></marker></defs></g><g style="opacity: 1;" id="L-f3-f4" class="edgePath LS-f3 LE-f4"><path style="fill:none" marker-end="url(#arrowhead182)" d="M695.25,720L695.25,724.1666666666666C695.25,728.3333333333334,695.25,736.6666666666666,695.25,745C695.25,753.3333333333334,695.25,761.6666666666666,695.25,770C695.25,778.3333333333334,695.25,786.6666666666666,695.25,795C695.25,803.3333333333334,695.25,811.6666666666666,695.25,820C695.25,828.3333333333334,695.25,836.6666666666666,695.25,848.25C695.25,859.8333333333334,695.25,874.6666666666666,695.25,889.5C695.25,904.3333333333334,695.25,919.1666666666666,695.25,934C695.25,948.8333333333334,695.25,963.6666666666666,695.25,978.5C695.25,993.3333333333334,695.25,1008.1666666666666,695.25,1023.1666666666666C695.25,1038.1666666666667,695.25,1053.3333333333333,695.25,1068.5C695.25,1083.6666666666667,695.25,1098.8333333333333,695.25,1118.9416669209797C695.25,1139.0500005086262,695.25,1164.1000010172527,695.25,1176.6250012715657L695.25,1189.150001525879" class="path"></path><defs><marker orient="auto" markerHeight="6" markerWidth="8" markerUnits="strokeWidth" refY="5" refX="9" viewBox="0 0 10 10" id="arrowhead182"><path style="stroke-width: 1; stroke-dasharray: 1, 0;" class="arrowheadPath" d="M 0 0 L 10 5 L 0 10 z"></path></marker></defs></g><g style="opacity: 1;" id="L-f4-f2" class="edgePath LS-f4 LE-f2"><path style="fill:none" marker-end="url(#arrowhead183)" d="M695.25,1230.150001525879L695.25,1242.6750017801921C695.25,1255.2000020345051,695.25,1280.2500025431316,669.4830729166666,1300.4489249351748C643.7161458333334,1320.647847327218,592.1822916666666,1335.9956916026779,566.4153645833334,1343.669613740408L540.6484375,1351.343535878138" class="path"></path><defs><marker orient="auto" markerHeight="6" markerWidth="8" markerUnits="strokeWidth" refY="5" refX="9" viewBox="0 0 10 10" id="arrowhead183"><path style="stroke-width: 1; stroke-dasharray: 1, 0;" class="arrowheadPath" d="M 0 0 L 10 5 L 0 10 z"></path></marker></defs></g></g><g class="edgeLabels"><g style="opacity: 1;" transform="" class="edgeLabel"><g class="label" transform="translate(0,0)"><rect height="0" width="0" ry="0" rx="0"></rect><foreignObject height="0" width="0"><div style="display: inline-block; white-space: nowrap;" xmlns="http://www.w3.org/1999/xhtml"><span style="" class="edgeLabel L-LS-a' L-LE-b1" id="L-L-a-b1"></span></div></foreignObject></g></g><g style="opacity: 1;" transform="" class="edgeLabel"><g class="label" transform="translate(0,0)"><rect height="0" width="0" ry="0" rx="0"></rect><foreignObject height="0" width="0"><div style="display: inline-block; white-space: nowrap;" xmlns="http://www.w3.org/1999/xhtml"><span style="" class="edgeLabel L-LS-b1' L-LE-e1" id="L-L-b1-e1"></span></div></foreignObject></g></g><g style="opacity: 1;" transform="" class="edgeLabel"><g class="label" transform="translate(0,0)"><rect height="0" width="0" ry="0" rx="0"></rect><foreignObject height="0" width="0"><div style="display: inline-block; white-space: nowrap;" xmlns="http://www.w3.org/1999/xhtml"><span style="" class="edgeLabel L-LS-e1' L-LE-f1" id="L-L-e1-f1"></span></div></foreignObject></g></g><g style="opacity: 1;" transform="" class="edgeLabel"><g class="label" transform="translate(0,0)"><rect height="0" width="0" ry="0" rx="0"></rect><foreignObject height="0" width="0"><div style="display: inline-block; white-space: nowrap;" xmlns="http://www.w3.org/1999/xhtml"><span style="" class="edgeLabel L-LS-f1' L-LE-f2" id="L-L-f1-f2"></span></div></foreignObject></g></g><g style="opacity: 1;" transform="" class="edgeLabel"><g class="label" transform="translate(0,0)"><rect height="0" width="0" ry="0" rx="0"></rect><foreignObject height="0" width="0"><div style="display: inline-block; white-space: nowrap;" xmlns="http://www.w3.org/1999/xhtml"><span style="" class="edgeLabel L-LS-a' L-LE-b3" id="L-L-a-b3"></span></div></foreignObject></g></g><g style="opacity: 1;" transform="" class="edgeLabel"><g class="label" transform="translate(0,0)"><rect height="0" width="0" ry="0" rx="0"></rect><foreignObject height="0" width="0"><div style="display: inline-block; white-space: nowrap;" xmlns="http://www.w3.org/1999/xhtml"><span style="" class="edgeLabel L-LS-b3' L-LE-e4" id="L-L-b3-e4"></span></div></foreignObject></g></g><g style="opacity: 1;" transform="" class="edgeLabel"><g class="label" transform="translate(0,0)"><rect height="0" width="0" ry="0" rx="0"></rect><foreignObject height="0" width="0"><div style="display: inline-block; white-space: nowrap;" xmlns="http://www.w3.org/1999/xhtml"><span style="" class="edgeLabel L-LS-e4' L-LE-f6" id="L-L-e4-f6"></span></div></foreignObject></g></g><g style="opacity: 1;" transform="" class="edgeLabel"><g class="label" transform="translate(0,0)"><rect height="0" width="0" ry="0" rx="0"></rect><foreignObject height="0" width="0"><div style="display: inline-block; white-space: nowrap;" xmlns="http://www.w3.org/1999/xhtml"><span style="" class="edgeLabel L-LS-f6' L-LE-f1" id="L-L-f6-f1"></span></div></foreignObject></g></g><g style="opacity: 1;" transform="" class="edgeLabel"><g class="label" transform="translate(0,0)"><rect height="0" width="0" ry="0" rx="0"></rect><foreignObject height="0" width="0"><div style="display: inline-block; white-space: nowrap;" xmlns="http://www.w3.org/1999/xhtml"><span style="" class="edgeLabel L-LS-a' L-LE-b2" id="L-L-a-b2"></span></div></foreignObject></g></g><g style="opacity: 1;" transform="" class="edgeLabel"><g class="label" transform="translate(0,0)"><rect height="0" width="0" ry="0" rx="0"></rect><foreignObject height="0" width="0"><div style="display: inline-block; white-space: nowrap;" xmlns="http://www.w3.org/1999/xhtml"><span style="" class="edgeLabel L-LS-b2' L-LE-c" id="L-L-b2-c"></span></div></foreignObject></g></g><g style="opacity: 1;" transform="translate(497.93281173706055,263.5)" class="edgeLabel"><g class="label" transform="translate(-15.8984375,-9.5)"><rect height="19" width="31.796875" ry="0" rx="0"></rect><foreignObject height="19" width="31.796875"><div style="display: inline-block; white-space: nowrap;" xmlns="http://www.w3.org/1999/xhtml"><span style="" class="edgeLabel L-LS-c' L-LE-d1" id="L-L-c-d1">ANSI</span></div></foreignObject></g></g><g style="opacity: 1;" transform="" class="edgeLabel"><g class="label" transform="translate(0,0)"><rect height="0" width="0" ry="0" rx="0"></rect><foreignObject height="0" width="0"><div style="display: inline-block; white-space: nowrap;" xmlns="http://www.w3.org/1999/xhtml"><span style="" class="edgeLabel L-LS-d1' L-LE-g1" id="L-L-d1-g1"></span></div></foreignObject></g></g><g style="opacity: 1;" transform="" class="edgeLabel"><g class="label" transform="translate(0,0)"><rect height="0" width="0" ry="0" rx="0"></rect><foreignObject height="0" width="0"><div style="display: inline-block; white-space: nowrap;" xmlns="http://www.w3.org/1999/xhtml"><span style="" class="edgeLabel L-LS-g1' L-LE-e" id="L-L-g1-e"></span></div></foreignObject></g></g><g style="opacity: 1;" transform="" class="edgeLabel"><g class="label" transform="translate(0,0)"><rect height="0" width="0" ry="0" rx="0"></rect><foreignObject height="0" width="0"><div style="display: inline-block; white-space: nowrap;" xmlns="http://www.w3.org/1999/xhtml"><span style="" class="edgeLabel L-LS-e' L-LE-e2" id="L-L-e-e2"></span></div></foreignObject></g></g><g style="opacity: 1;" transform="" class="edgeLabel"><g class="label" transform="translate(0,0)"><rect height="0" width="0" ry="0" rx="0"></rect><foreignObject height="0" width="0"><div style="display: inline-block; white-space: nowrap;" xmlns="http://www.w3.org/1999/xhtml"><span style="" class="edgeLabel L-LS-e2' L-LE-f5" id="L-L-e2-f5"></span></div></foreignObject></g></g><g style="opacity: 1;" transform="" class="edgeLabel"><g class="label" transform="translate(0,0)"><rect height="0" width="0" ry="0" rx="0"></rect><foreignObject height="0" width="0"><div style="display: inline-block; white-space: nowrap;" xmlns="http://www.w3.org/1999/xhtml"><span style="" class="edgeLabel L-LS-f5' L-LE-f1" id="L-L-f5-f1"></span></div></foreignObject></g></g><g style="opacity: 1;" transform="" class="edgeLabel"><g class="label" transform="translate(0,0)"><rect height="0" width="0" ry="0" rx="0"></rect><foreignObject height="0" width="0"><div style="display: inline-block; white-space: nowrap;" xmlns="http://www.w3.org/1999/xhtml"><span style="" class="edgeLabel L-LS-d1' L-LE-g2" id="L-L-d1-g2"></span></div></foreignObject></g></g><g style="opacity: 1;" transform="" class="edgeLabel"><g class="label" transform="translate(0,0)"><rect height="0" width="0" ry="0" rx="0"></rect><foreignObject height="0" width="0"><div style="display: inline-block; white-space: nowrap;" xmlns="http://www.w3.org/1999/xhtml"><span style="" class="edgeLabel L-LS-g2' L-LE-e3" id="L-L-g2-e3"></span></div></foreignObject></g></g><g style="opacity: 1;" transform="translate(521.265625,553.5)" class="edgeLabel"><g class="label" transform="translate(-21.1640625,-9.5)"><rect height="19" width="42.328125" ry="0" rx="0"></rect><foreignObject height="19" width="42.328125"><div style="display: inline-block; white-space: nowrap;" xmlns="http://www.w3.org/1999/xhtml"><span style="" class="edgeLabel L-LS-e3' L-LE-d2" id="L-L-e3-d2">UTF-8</span></div></foreignObject></g></g><g style="opacity: 1;" transform="" class="edgeLabel"><g class="label" transform="translate(0,0)"><rect height="0" width="0" ry="0" rx="0"></rect><foreignObject height="0" width="0"><div style="display: inline-block; white-space: nowrap;" xmlns="http://www.w3.org/1999/xhtml"><span style="" class="edgeLabel L-LS-d2' L-LE-f3" id="L-L-d2-f3"></span></div></foreignObject></g></g><g style="opacity: 1;" transform="" class="edgeLabel"><g class="label" transform="translate(0,0)"><rect height="0" width="0" ry="0" rx="0"></rect><foreignObject height="0" width="0"><div style="display: inline-block; white-space: nowrap;" xmlns="http://www.w3.org/1999/xhtml"><span style="" class="edgeLabel L-LS-d2' L-LE-g1" id="L-L-d2-g1"></span></div></foreignObject></g></g><g style="opacity: 1;" transform="" class="edgeLabel"><g class="label" transform="translate(0,0)"><rect height="0" width="0" ry="0" rx="0"></rect><foreignObject height="0" width="0"><div style="display: inline-block; white-space: nowrap;" xmlns="http://www.w3.org/1999/xhtml"><span style="" class="edgeLabel L-LS-d2' L-LE-g3" id="L-L-d2-g3"></span></div></foreignObject></g></g><g style="opacity: 1;" transform="" class="edgeLabel"><g class="label" transform="translate(0,0)"><rect height="0" width="0" ry="0" rx="0"></rect><foreignObject height="0" width="0"><div style="display: inline-block; white-space: nowrap;" xmlns="http://www.w3.org/1999/xhtml"><span style="" class="edgeLabel L-LS-g3' L-LE-f5" id="L-L-g3-f5"></span></div></foreignObject></g></g><g style="opacity: 1;" transform="" class="edgeLabel"><g class="label" transform="translate(0,0)"><rect height="0" width="0" ry="0" rx="0"></rect><foreignObject height="0" width="0"><div style="display: inline-block; white-space: nowrap;" xmlns="http://www.w3.org/1999/xhtml"><span style="" class="edgeLabel L-LS-d1' L-LE-f3" id="L-L-d1-f3"></span></div></foreignObject></g></g><g style="opacity: 1;" transform="" class="edgeLabel"><g class="label" transform="translate(0,0)"><rect height="0" width="0" ry="0" rx="0"></rect><foreignObject height="0" width="0"><div style="display: inline-block; white-space: nowrap;" xmlns="http://www.w3.org/1999/xhtml"><span style="" class="edgeLabel L-LS-f3' L-LE-f4" id="L-L-f3-f4"></span></div></foreignObject></g></g><g style="opacity: 1;" transform="" class="edgeLabel"><g class="label" transform="translate(0,0)"><rect height="0" width="0" ry="0" rx="0"></rect><foreignObject height="0" width="0"><div style="display: inline-block; white-space: nowrap;" xmlns="http://www.w3.org/1999/xhtml"><span style="" class="edgeLabel L-LS-f4' L-LE-f2" id="L-L-f4-f2"></span></div></foreignObject></g></g></g><g class="nodes"><g style="opacity: 1;" transform="translate(253.41718673706055,27.5)" id="flowchart-a-104" class="node default"><rect class="label-container" height="39" width="120.28125" y="-19.5" x="-60.140625" ry="5" rx="5"></rect><g transform="translate(0,0)" class="label"><g transform="translate(-50.140625,-9.5)"><foreignObject height="19" width="100.28125"><div style="display: inline-block; white-space: nowrap;" xmlns="http://www.w3.org/1999/xhtml">Public Version</div></foreignObject></g></g></g><g style="opacity: 1;" transform="translate(83.375,117.5)" id="flowchart-b1-105" class="node default"><rect class="label-container" height="41" width="121.5" y="-20.5" x="-60.75" ry="5" rx="5"></rect><g transform="translate(0,0)" class="label"><g transform="translate(-50.75,-10.5)"><foreignObject height="21" width="101.5"><div style="display: inline-block; white-space: nowrap;" xmlns="http://www.w3.org/1999/xhtml">未给定 list.txt</div></foreignObject></g></g></g><g style="opacity: 1;" transform="translate(83.375,208.5)" id="flowchart-e1-107" class="node default"><rect class="label-container" height="39" width="150.75" y="-19.5" x="-75.375" ry="5" rx="5"></rect><g transform="translate(0,0)" class="label"><g transform="translate(-65.375,-9.5)"><foreignObject height="19" width="130.75"><div style="display: inline-block; white-space: nowrap;" xmlns="http://www.w3.org/1999/xhtml">FileNotFoundError</div></foreignObject></g></g></g><g style="opacity: 1;" transform="translate(266.75,1209.650001525879)" id="flowchart-f1-109" class="node default"><polygon class="label-container" transform="translate(-70.65,70.65)" points="70.65,0 141.3,-70.65 70.65,-141.3 0,-70.65"></polygon><g transform="translate(0,0)" class="label"><g transform="translate(-48,-10.5)"><foreignObject height="21" width="96"><div style="display: inline-block; white-space: nowrap;" xmlns="http://www.w3.org/1999/xhtml">启用备用元组</div></foreignObject></g></g></g><g style="opacity: 1;" transform="translate(481,1369.1080703735352)" id="flowchart-f2-111" class="node default"><path class="label-container" transform="translate(-59.6484375,-38.812280140709944)" d="M 0,12.208186760473298 a 59.6484375,12.208186760473298 0,0,0 119.296875 0 a 59.6484375,12.208186760473298 0,0,0 -119.296875 0 l 0,53.208186760473296 a 59.6484375,12.208186760473298 0,0,0 119.296875 0 l 0,-53.208186760473296"></path><g transform="translate(0,0)" class="label"><g transform="translate(-49.6484375,-10.5)"><foreignObject height="21" width="99.296875"><div style="display: inline-block; white-space: nowrap;" xmlns="http://www.w3.org/1999/xhtml">进入 GUI 部分</div></foreignObject></g></g></g><g style="opacity: 1;" transform="translate(266.75,117.5)" id="flowchart-b3-113" class="node default"><rect class="label-container" height="41" width="116" y="-20.5" x="-58" ry="5" rx="5"></rect><g transform="translate(0,0)" class="label"><g transform="translate(-48,-10.5)"><foreignObject height="21" width="96"><div style="display: inline-block; white-space: nowrap;" xmlns="http://www.w3.org/1999/xhtml">出现未知错误</div></foreignObject></g></g></g><g style="opacity: 1;" transform="translate(266.75,208.5)" id="flowchart-e4-115" class="node default"><rect class="label-container" height="41" width="116" y="-20.5" x="-58" ry="5" rx="5"></rect><g transform="translate(0,0)" class="label"><g transform="translate(-48,-10.5)"><foreignObject height="21" width="96"><div style="display: inline-block; white-space: nowrap;" xmlns="http://www.w3.org/1999/xhtml">写入错误日志</div></foreignObject></g></g></g><g style="opacity: 1;" transform="translate(266.75,318.5)" id="flowchart-f6-117" class="node default"><rect class="label-container" height="41" width="84" y="-20.5" x="-42" ry="5" rx="5"></rect><g transform="translate(0,0)" class="label"><g transform="translate(-32,-10.5)"><foreignObject height="21" width="64"><div style="display: inline-block; white-space: nowrap;" xmlns="http://www.w3.org/1999/xhtml">引导反馈</div></foreignObject></g></g></g><g style="opacity: 1;" transform="translate(497.93281173706055,117.5)" id="flowchart-b2-121" class="node default"><rect class="label-container" height="41" width="105.5" y="-20.5" x="-52.75" ry="5" rx="5"></rect><g transform="translate(0,0)" class="label"><g transform="translate(-42.75,-10.5)"><foreignObject height="21" width="85.5"><div style="display: inline-block; white-space: nowrap;" xmlns="http://www.w3.org/1999/xhtml">给定 list.txt</div></foreignObject></g></g></g><g style="opacity: 1;" transform="translate(497.93281173706055,208.5)" id="flowchart-c-123" class="node default"><rect class="label-container" height="41" width="105.5" y="-20.5" x="-52.75" ry="5" rx="5"></rect><g transform="translate(0,0)" class="label"><g transform="translate(-42.75,-10.5)"><foreignObject height="21" width="85.5"><div style="display: inline-block; white-space: nowrap;" xmlns="http://www.w3.org/1999/xhtml">输入 list.txt</div></foreignObject></g></g></g><g style="opacity: 1;" transform="translate(497.93281173706055,318.5)" id="flowchart-d1-125" class="node default"><rect class="label-container" height="41" width="148" y="-20.5" x="-74" ry="5" rx="5"></rect><g transform="translate(0,0)" class="label"><g transform="translate(-64,-10.5)"><foreignObject height="21" width="128"><div style="display: inline-block; white-space: nowrap;" xmlns="http://www.w3.org/1999/xhtml">读取并处理为列表</div></foreignObject></g></g></g><g style="opacity: 1;" transform="translate(359.28125,699.5)" id="flowchart-g1-127" class="node default"><rect class="label-container" height="41" width="84" y="-20.5" x="-42" ry="5" rx="5"></rect><g transform="translate(0,0)" class="label"><g transform="translate(-32,-10.5)"><foreignObject height="21" width="64"><div style="display: inline-block; white-space: nowrap;" xmlns="http://www.w3.org/1999/xhtml">列表为空</div></foreignObject></g></g></g><g style="opacity: 1;" transform="translate(359.28125,889.5)" id="flowchart-e-129" class="node default"><rect class="label-container" height="39" width="54.390625" y="-19.5" x="-27.1953125" ry="5" rx="5"></rect><g transform="translate(0,0)" class="label"><g transform="translate(-17.1953125,-9.5)"><foreignObject height="19" width="34.390625"><div style="display: inline-block; white-space: nowrap;" xmlns="http://www.w3.org/1999/xhtml">raise</div></foreignObject></g></g></g><g style="opacity: 1;" transform="translate(359.28125,978.5)" id="flowchart-e2-131" class="node default"><rect class="label-container" height="39" width="115.0625" y="-19.5" x="-57.53125" ry="5" rx="5"></rect><g transform="translate(0,0)" class="label"><g transform="translate(-47.53125,-9.5)"><foreignObject height="19" width="95.0625"><div style="display: inline-block; white-space: nowrap;" xmlns="http://www.w3.org/1999/xhtml">RuntimeError</div></foreignObject></g></g></g><g style="opacity: 1;" transform="translate(458.67499923706055,1068.5)" id="flowchart-f5-133" class="node default"><rect class="label-container" height="41" width="84" y="-20.5" x="-42" ry="5" rx="5"></rect><g transform="translate(0,0)" class="label"><g transform="translate(-32,-10.5)"><foreignObject height="21" width="64"><div style="display: inline-block; white-space: nowrap;" xmlns="http://www.w3.org/1999/xhtml">显示警告</div></foreignObject></g></g></g><g style="opacity: 1;" transform="translate(521.265625,409.5)" id="flowchart-g2-137" class="node default"><rect class="label-container" height="41" width="109.4375" y="-20.5" x="-54.71875" ry="5" rx="5"></rect><g transform="translate(0,0)" class="label"><g transform="translate(-44.71875,-10.5)"><foreignObject height="21" width="89.4375"><div style="display: inline-block; white-space: nowrap;" xmlns="http://www.w3.org/1999/xhtml">非 ANSI 编码</div></foreignObject></g></g></g><g style="opacity: 1;" transform="translate(521.265625,499.5)" id="flowchart-e3-139" class="node default"><rect class="label-container" height="39" width="166.328125" y="-19.5" x="-83.1640625" ry="5" rx="5"></rect><g transform="translate(0,0)" class="label"><g transform="translate(-73.1640625,-9.5)"><foreignObject height="19" width="146.328125"><div style="display: inline-block; white-space: nowrap;" xmlns="http://www.w3.org/1999/xhtml">UnicodeDecodeError</div></foreignObject></g></g></g><g style="opacity: 1;" transform="translate(521.265625,608.5)" id="flowchart-d2-141" class="node default"><rect class="label-container" height="41" width="148" y="-20.5" x="-74" ry="5" rx="5"></rect><g transform="translate(0,0)" class="label"><g transform="translate(-64,-10.5)"><foreignObject height="21" width="128"><div style="display: inline-block; white-space: nowrap;" xmlns="http://www.w3.org/1999/xhtml">读取并处理为列表</div></foreignObject></g></g></g><g style="opacity: 1;" transform="translate(695.25,699.5)" id="flowchart-f3-143" class="node default"><rect class="label-container" height="41" width="148" y="-20.5" x="-74" ry="5" rx="5"></rect><g transform="translate(0,0)" class="label"><g transform="translate(-64,-10.5)"><foreignObject height="21" width="128"><div style="display: inline-block; white-space: nowrap;" xmlns="http://www.w3.org/1999/xhtml">处理为集合以去重</div></foreignObject></g></g></g><g style="opacity: 1;" transform="translate(511.265625,699.5)" id="flowchart-g3-147" class="node default"><rect class="label-container" height="41" width="119.96875" y="-20.5" x="-59.984375" ry="5" rx="5"></rect><g transform="translate(0,0)" class="label"><g transform="translate(-49.984375,-10.5)"><foreignObject height="21" width="99.96875"><div style="display: inline-block; white-space: nowrap;" xmlns="http://www.w3.org/1999/xhtml">非 UTF-8 编码</div></foreignObject></g></g></g><g style="opacity: 1;" transform="translate(695.25,1209.650001525879)" id="flowchart-f4-153" class="node default"><rect class="label-container" height="41" width="180" y="-20.5" x="-90" ry="5" rx="5"></rect><g transform="translate(0,0)" class="label"><g transform="translate(-80,-10.5)"><foreignObject height="21" width="160"><div style="display: inline-block; white-space: nowrap;" xmlns="http://www.w3.org/1999/xhtml">处理为元组以防止修改</div></foreignObject></g></g></g></g></g></g><style>@import url("https://cdnjs.cloudflare.com/ajax/libs/font-awesome/5.15.2/css/all.min.css");</style></svg>